<svg width="1512.77" height="352" viewBox="0 0 1512.77 352" xmlns="http://www.w3.org/2000/svg"><g transform="translate(48 48)"><rect width="256" height="256" rx="56.32" fill="#1E3A8A"/><g fill="#ffffff" transform="translate(128 128) scale(0.06886 -0.06886) translate(-1222.02 -745.00)"><path transform="translate(0.00 0)" d="M561.3992919921875 -23.199951171875Q319.4000244140625 -23.199951171875 185.2001953125 102.9998779296875Q51.0003662109375 229.19970703125 51.0003662109375 463.9993896484375V574.39892578125H394.1978759765625V460.7994384765625Q394.1978759765625 375.39862060546875 436.8983154296875 329.6982116699219Q479.5987548828125 283.997802734375 555.7993774414062 283.997802734375Q632 283.997802734375 674.700439453125 329.6982116699219Q717.40087890625 375.39862060546875 717.40087890625 460.7994384765625V1490H1086.197998046875V454.3995361328125Q1086.197998046875 224.3997802734375 948.3982238769531 100.59991455078125Q810.5984497070312 -23.199951171875 561.3992919921875 -23.199951171875Z"/><path transform="translate(1085.84 0)" d="M691.19921875 -24Q491.9996337890625 -24 352.39984130859375 36.300018310546875Q212.800048828125 96.60003662109375 139.80010986328125 212.39999389648438Q66.8001708984375 328.199951171875 66.8001708984375 492.7998046875H417.99761962890625Q420.3975830078125 423.5992431640625 454.49774169921875 373.8988342285156Q488.597900390625 324.19842529296875 549.9982604980469 297.6982116699219Q611.3986206054688 271.197998046875 695.1991577148438 271.197998046875Q769.7996826171875 271.197998046875 825.1000671386719 290.7981872558594Q880.4004516601562 310.39837646484375 911.4006652832031 345.7987365722656Q942.40087890625 381.1990966796875 942.40087890625 428.39959716796875Q942.40087890625 469.59991455078125 915.8008422851562 500.400146484375Q889.2008056640625 531.2003784179688 833.1006774902344 554.1005554199219Q777.0005493164062 577.000732421875 688.2002563476562 595.0008544921875L536.4000244140625 625.6010131835938Q317.9998779296875 669.6011962890625 206.60003662109375 777.2009887695312Q95.2001953125 884.80078125 95.2001953125 1048.0006103515625Q95.2001953125 1187.4004516601562 169.50003051757812 1292.1003112792969Q243.79986572265625 1396.8001708984375 376.599609375 1455.4000854492188Q509.39935302734375 1514 685.1990356445312 1514Q864.9986572265625 1514 995.0984191894531 1455.5000305175781Q1125.1981811523438 1397.0000610351562 1197.1980590820312 1287.400146484375Q1269.1979370117188 1177.8002319335938 1273.9979248046875 1024.400390625H932.8004150390625Q925.6004028320312 1114.8011474609375 860.3999938964844 1166.7015686035156Q795.1995849609375 1218.6019897460938 690.3988647460938 1218.6019897460938Q624.7984008789062 1218.6019897460938 573.8980407714844 1199.0018005371094Q522.9976806640625 1179.401611328125 494.09747314453125 1145.2012634277344Q465.197265625 1111.0009155273438 465.197265625 1065.8004760742188Q465.197265625 1025.4002075195312 489.59735107421875 996.7999877929688Q513.9974365234375 968.1997680664062 566.6976318359375 946.7995910644531Q619.3978271484375 925.3994140625 702.5982055664062 908.7992553710938L832.3988037109375 882.7990112304688Q956.5985717773438 858.198974609375 1046.5984191894531 820.9989624023438Q1136.5982666015625 783.7989501953125 1194.2981872558594 731.3989868164062Q1251.9981079101562 678.9990234375 1279.5980834960938 610.2991027832031Q1307.1980590820312 541.5991821289062 1307.1980590820312 454.79931640625Q1307.1980590820312 304.19964599609375 1234.09814453125 196.99978637695312Q1160.9982299804688 89.7999267578125 1023.0984802246094 32.89996337890625Q885.19873046875 -24 691.19921875 -24Z"/></g></g><g fill="currentColor" transform="translate(376 176) scale(0.09375 -0.09375) translate(-57.00 -746.70)"><path transform="translate(0.00 0)" d="M549.798583984375 -22.39990234375Q319.800048828125 -22.39990234375 188.400390625 100.999755859375Q57.000732421875 224.3994140625 57.000732421875 453.998779296875V556.7978515625H359.395751953125V451.598876953125Q359.395751953125 352.7972412109375 409.296630859375 300.39642333984375Q459.197509765625 247.99560546875 545.5987548828125 247.99560546875Q632 247.99560546875 681.90087890625 300.39642333984375Q731.8017578125 352.7972412109375 731.8017578125 451.598876953125V1490H1053.39599609375V446.799072265625Q1053.39599609375 220.799560546875 919.2964477539062 99.1998291015625Q785.1968994140625 -22.39990234375 549.798583984375 -22.39990234375Z"/><path transform="translate(1093.00 0)" d="M597.99853515625 -24Q436.9991455078125 -24 314.79962158203125 44.7000732421875Q192.60009765625 113.400146484375 124.5003662109375 237.400146484375Q56.400634765625 361.400146484375 56.400634765625 527.199951171875Q56.400634765625 693.3997802734375 124.5003662109375 817.4998168945312Q192.60009765625 941.599853515625 314.79962158203125 1010.7999267578125Q436.9991455078125 1080 597.99853515625 1080Q759.9979248046875 1080 881.6974487304688 1010.7999267578125Q1003.39697265625 941.599853515625 1071.4967041015625 817.4998168945312Q1139.596435546875 693.3997802734375 1139.596435546875 527.199951171875Q1139.596435546875 361.400146484375 1071.4967041015625 237.400146484375Q1003.39697265625 113.400146484375 881.6974487304688 44.7000732421875Q759.9979248046875 -24 597.99853515625 -24ZM597.99853515625 224.796142578125Q666.7998046875 224.796142578125 718.6005859375 260.5966796875Q770.4013671875 296.397216796875 799.4017333984375 364.298095703125Q828.402099609375 432.198974609375 828.402099609375 527.199951171875Q828.402099609375 623.6009521484375 799.4017333984375 691.2018432617188Q770.4013671875 758.802734375 718.6005859375 795.0032958984375Q666.7998046875 831.203857421875 597.99853515625 831.203857421875Q530.197265625 831.203857421875 477.896484375 795.2033081054688Q425.595703125 759.2027587890625 396.5953369140625 691.40185546875Q367.594970703125 623.6009521484375 367.594970703125 527.199951171875Q367.594970703125 431.7989501953125 396.5953369140625 364.09808349609375Q425.595703125 296.397216796875 477.69647216796875 260.5966796875Q529.7972412109375 224.796142578125 597.99853515625 224.796142578125Z"/><path transform="translate(2225.00 0)" d="M588.9989013671875 -24Q428.59912109375 -24 308.59954833984375 46.70001220703125Q188.5999755859375 117.4000244140625 122.50030517578125 242.20001220703125Q56.400634765625 367 56.400634765625 527.199951171875Q56.400634765625 688.7999267578125 123.400390625 813.4999389648438Q190.400146484375 938.199951171875 308.29974365234375 1009.0999755859375Q426.1993408203125 1080 579.3988037109375 1080Q696.5985107421875 1080 792.5982055664062 1040.2999877929688Q888.597900390625 1000.5999755859375 958.1976318359375 927.4999389648438Q1027.79736328125 854.39990234375 1065.4971923828125 754.3998413085938Q1103.197021484375 654.3997802734375 1103.197021484375 533.7996826171875V450.8011474609375H163.199951171875V643.5992431640625H955.9991455078125L816.40185546875 599.7989501953125Q816.40185546875 676.6002197265625 788.4014282226562 732.1011962890625Q760.4010009765625 787.6021728515625 709.000244140625 817.6027221679688Q657.5994873046875 847.603271484375 585.99853515625 847.603271484375Q515.3975830078125 847.603271484375 463.8968505859375 817.6027221679688Q412.3961181640625 787.6021728515625 384.39569091796875 732.1011962890625Q356.395263671875 676.6002197265625 356.395263671875 599.7989501953125V464.801513671875Q356.395263671875 386.4002685546875 384.8956298828125 327.5992431640625Q413.39599609375 268.7982177734375 467.69671630859375 236.59759521484375Q521.9974365234375 204.39697265625 598.5985107421875 204.39697265625Q654.3992919921875 204.39697265625 697.8998413085938 220.39727783203125Q741.400390625 236.3975830078125 770.8007202148438 265.49810791015625Q800.2010498046875 294.5986328125 813.201171875 333.3992919921875H1093.5966796875Q1074.1966552734375 228.199462890625 1003.39697265625 147.79962158203125Q932.5972900390625 67.3997802734375 825.497802734375 21.69989013671875Q718.3983154296875 -24 588.9989013671875 -24Z"/><path transform="translate(3683.00 0)" d="M678.3984375 -24Q485.999267578125 -24 349.7996826171875 36.60003662109375Q213.60009765625 97.2000732421875 141.6002197265625 212.29998779296875Q69.600341796875 327.39990234375 69.600341796875 489.599609375H378.9952392578125Q380.795166015625 411.198486328125 417.4954833984375 354.79766845703125Q454.19580078125 298.3968505859375 521.4965209960938 268.39642333984375Q588.7972412109375 238.39599609375 681.3983154296875 238.39599609375Q764.599365234375 238.39599609375 826.2001342773438 261.09637451171875Q887.8009033203125 283.7967529296875 922.3013305664062 325.09747314453125Q956.8017578125 366.398193359375 956.8017578125 421.7991943359375Q956.8017578125 468.1998291015625 929.6016845703125 502.80029296875Q902.401611328125 537.4007568359375 844.2013549804688 563.2011108398438Q786.0010986328125 589.00146484375 692.4005126953125 609.001708984375L536.800048828125 642.2020263671875Q315.999755859375 689.202392578125 207.2000732421875 793.4019775390625Q98.400390625 897.6015625 98.400390625 1058.001220703125Q98.400390625 1194.8009033203125 170.00006103515625 1297.2006225585938Q241.5997314453125 1399.600341796875 370.19921875 1456.8001708984375Q498.7987060546875 1514 669.3980712890625 1514Q842.997314453125 1514 969.1968383789062 1456.0000610351562Q1095.3963623046875 1398.0001220703125 1165.3961181640625 1289.80029296875Q1235.3958740234375 1181.6004638671875 1239.995849609375 1030.80078125H939.600830078125Q932.2008056640625 1133.602294921875 860.2999877929688 1192.4031372070312Q788.399169921875 1251.2039794921875 671.7977294921875 1251.2039794921875Q598.5968017578125 1251.2039794921875 541.7960815429688 1228.5036010742188Q484.995361328125 1205.80322265625 452.6949462890625 1165.9025268554688Q420.39453125 1126.0018310546875 420.39453125 1073.6009521484375Q420.39453125 1028.8004150390625 446.1947021484375 996.5999755859375Q471.994873046875 964.3995361328125 527.895263671875 940.0991821289062Q583.795654296875 915.798828125 673.1964111328125 896.5985107421875L812.797607421875 866.5980224609375Q933.1971435546875 841.39794921875 1020.6968383789062 803.9979248046875Q1108.196533203125 766.597900390625 1164.5963745117188 714.7979736328125Q1220.9962158203125 662.998046875 1248.1961669921875 595.5982055664062Q1275.3961181640625 528.1983642578125 1275.3961181640625 443.5986328125Q1275.3961181640625 298.3992919921875 1203.6962890625 193.49957275390625Q1131.9964599609375 88.599853515625 998.1969604492188 32.2999267578125Q864.3974609375 -24 678.3984375 -24Z"/><path transform="translate(4964.00 0)" d="M588.9989013671875 -24Q428.59912109375 -24 308.59954833984375 46.70001220703125Q188.5999755859375 117.4000244140625 122.50030517578125 242.20001220703125Q56.400634765625 367 56.400634765625 527.199951171875Q56.400634765625 688.7999267578125 123.400390625 813.4999389648438Q190.400146484375 938.199951171875 308.29974365234375 1009.0999755859375Q426.1993408203125 1080 579.3988037109375 1080Q696.5985107421875 1080 792.5982055664062 1040.2999877929688Q888.597900390625 1000.5999755859375 958.1976318359375 927.4999389648438Q1027.79736328125 854.39990234375 1065.4971923828125 754.3998413085938Q1103.197021484375 654.3997802734375 1103.197021484375 533.7996826171875V450.8011474609375H163.199951171875V643.5992431640625H955.9991455078125L816.40185546875 599.7989501953125Q816.40185546875 676.6002197265625 788.4014282226562 732.1011962890625Q760.4010009765625 787.6021728515625 709.000244140625 817.6027221679688Q657.5994873046875 847.603271484375 585.99853515625 847.603271484375Q515.3975830078125 847.603271484375 463.8968505859375 817.6027221679688Q412.3961181640625 787.6021728515625 384.39569091796875 732.1011962890625Q356.395263671875 676.6002197265625 356.395263671875 599.7989501953125V464.801513671875Q356.395263671875 386.4002685546875 384.8956298828125 327.5992431640625Q413.39599609375 268.7982177734375 467.69671630859375 236.59759521484375Q521.9974365234375 204.39697265625 598.5985107421875 204.39697265625Q654.3992919921875 204.39697265625 697.8998413085938 220.39727783203125Q741.400390625 236.3975830078125 770.8007202148438 265.49810791015625Q800.2010498046875 294.5986328125 813.201171875 333.3992919921875H1093.5966796875Q1074.1966552734375 228.199462890625 1003.39697265625 147.79962158203125Q932.5972900390625 67.3997802734375 825.497802734375 21.69989013671875Q718.3983154296875 -24 588.9989013671875 -24Z"/><path transform="translate(6056.00 0)" d="M399.6015625 0 9.600830078125 1056H332.795166015625L501.3975830078125 543.99609375Q531.5975341796875 448.796875 559.0974731445312 353.59765625Q586.597412109375 258.3984375 613.3973388671875 163.19921875H539.9986572265625Q566.5986328125 258.3984375 593.298583984375 353.59765625Q619.99853515625 448.796875 649.198486328125 543.99609375L814.8009033203125 1056H1134.395263671875L744.39453125 0Z"/><path transform="translate(7136.00 0)" d="M588.9989013671875 -24Q428.59912109375 -24 308.59954833984375 46.70001220703125Q188.5999755859375 117.4000244140625 122.50030517578125 242.20001220703125Q56.400634765625 367 56.400634765625 527.199951171875Q56.400634765625 688.7999267578125 123.400390625 813.4999389648438Q190.400146484375 938.199951171875 308.29974365234375 1009.0999755859375Q426.1993408203125 1080 579.3988037109375 1080Q696.5985107421875 1080 792.5982055664062 1040.2999877929688Q888.597900390625 1000.5999755859375 958.1976318359375 927.4999389648438Q1027.79736328125 854.39990234375 1065.4971923828125 754.3998413085938Q1103.197021484375 654.3997802734375 1103.197021484375 533.7996826171875V450.8011474609375H163.199951171875V643.5992431640625H955.9991455078125L816.40185546875 599.7989501953125Q816.40185546875 676.6002197265625 788.4014282226562 732.1011962890625Q760.4010009765625 787.6021728515625 709.000244140625 817.6027221679688Q657.5994873046875 847.603271484375 585.99853515625 847.603271484375Q515.3975830078125 847.603271484375 463.8968505859375 817.6027221679688Q412.3961181640625 787.6021728515625 384.39569091796875 732.1011962890625Q356.395263671875 676.6002197265625 356.395263671875 599.7989501953125V464.801513671875Q356.395263671875 386.4002685546875 384.8956298828125 327.5992431640625Q413.39599609375 268.7982177734375 467.69671630859375 236.59759521484375Q521.9974365234375 204.39697265625 598.5985107421875 204.39697265625Q654.3992919921875 204.39697265625 697.8998413085938 220.39727783203125Q741.400390625 236.3975830078125 770.8007202148438 265.49810791015625Q800.2010498046875 294.5986328125 813.201171875 333.3992919921875H1093.5966796875Q1074.1966552734375 228.199462890625 1003.39697265625 147.79962158203125Q932.5972900390625 67.3997802734375 825.497802734375 21.69989013671875Q718.3983154296875 -24 588.9989013671875 -24Z"/><path transform="translate(8228.00 0)" d="M102.0009765625 0V1056H399.595458984375V874.400634765625H402.3955078125Q431.3955078125 971.4000244140625 493.195556640625 1016.9002075195312Q554.99560546875 1062.400390625 659.995361328125 1062.400390625Q686.59521484375 1062.400390625 708.4951171875 1061.600341796875Q730.39501953125 1060.80029296875 748.794677734375 1060.000244140625V800.00390625Q732.1949462890625 801.2039794921875 694.6953125 803.0040893554688Q657.1956787109375 804.80419921875 619.595703125 804.80419921875Q559.19580078125 804.80419921875 511.595703125 777.2042236328125Q463.99560546875 749.604248046875 436.9954833984375 695.9041137695312Q409.995361328125 642.2039794921875 409.995361328125 563.603515625V0Z"/><path transform="translate(8939.00 0)" d="M102.0009765625 0V1056H409.995361328125V0ZM255.398193359375 1190.6029052734375Q184.59912109375 1190.6029052734375 135.29974365234375 1238.1023559570312Q86.0003662109375 1285.601806640625 86.0003662109375 1354.0009765625Q86.0003662109375 1422.400146484375 135.29974365234375 1469.8995971679688Q184.59912109375 1517.3990478515625 255.398193359375 1517.3990478515625Q326.197265625 1517.3990478515625 375.49664306640625 1469.8995971679688Q424.7960205078125 1422.400146484375 424.7960205078125 1354.0009765625Q424.7960205078125 1285.601806640625 375.49664306640625 1238.1023559570312Q326.197265625 1190.6029052734375 255.398193359375 1190.6029052734375Z"/><path transform="translate(9387.00 0)" d="M409.995361328125 583.201416015625V0H102.0009765625V1056H405.3953857421875V779.0008544921875H354.9954833984375Q405.195556640625 919.0009765625 497.99554443359375 998.700439453125Q590.7955322265625 1078.39990234375 736.794677734375 1078.39990234375Q850.3944091796875 1078.39990234375 932.99462890625 1029.5Q1015.5948486328125 980.60009765625 1060.5951538085938 887.60009765625Q1105.595458984375 794.60009765625 1105.595458984375 661.999755859375V0H797.60107421875V603.20166015625Q797.60107421875 706.0030517578125 748.6004028320312 759.6036987304688Q699.5997314453125 813.204345703125 609.3985595703125 813.204345703125Q550.3978271484375 813.204345703125 505.3970947265625 788.8040771484375Q460.3963623046875 764.40380859375 435.19586181640625 713.503173828125Q409.995361328125 662.6025390625 409.995361328125 583.201416015625Z"/><path transform="translate(10531.00 0)" d="M597.99853515625 -24Q436.9991455078125 -24 314.79962158203125 44.7000732421875Q192.60009765625 113.400146484375 124.5003662109375 237.400146484375Q56.400634765625 361.400146484375 56.400634765625 527.199951171875Q56.400634765625 693.3997802734375 124.5003662109375 817.4998168945312Q192.60009765625 941.599853515625 314.79962158203125 1010.7999267578125Q436.9991455078125 1080 597.99853515625 1080Q759.9979248046875 1080 881.6974487304688 1010.7999267578125Q1003.39697265625 941.599853515625 1071.4967041015625 817.4998168945312Q1139.596435546875 693.3997802734375 1139.596435546875 527.199951171875Q1139.596435546875 361.400146484375 1071.4967041015625 237.400146484375Q1003.39697265625 113.400146484375 881.6974487304688 44.7000732421875Q759.9979248046875 -24 597.99853515625 -24ZM597.99853515625 224.796142578125Q666.7998046875 224.796142578125 718.6005859375 260.5966796875Q770.4013671875 296.397216796875 799.4017333984375 364.298095703125Q828.402099609375 432.198974609375 828.402099609375 527.199951171875Q828.402099609375 623.6009521484375 799.4017333984375 691.2018432617188Q770.4013671875 758.802734375 718.6005859375 795.0032958984375Q666.7998046875 831.203857421875 597.99853515625 831.203857421875Q530.197265625 831.203857421875 477.896484375 795.2033081054688Q425.595703125 759.2027587890625 396.5953369140625 691.40185546875Q367.594970703125 623.6009521484375 367.594970703125 527.199951171875Q367.594970703125 431.7989501953125 396.5953369140625 364.09808349609375Q425.595703125 296.397216796875 477.69647216796875 260.5966796875Q529.7972412109375 224.796142578125 597.99853515625 224.796142578125Z"/></g></svg>