<svg width="1736.11" height="352" viewBox="0 0 1736.11 352" xmlns="http://www.w3.org/2000/svg"><g transform="translate(48 48)"><rect width="256" height="256" rx="56.32" fill="#1E3A8A"/><g fill="#ffffff" transform="translate(128 128) scale(0.06886 -0.06886) translate(-1222.02 -745.00)"><path transform="translate(0.00 0)" d="M561.3992919921875 -23.199951171875Q319.4000244140625 -23.199951171875 185.2001953125 102.9998779296875Q51.0003662109375 229.19970703125 51.0003662109375 463.9993896484375V574.39892578125H394.1978759765625V460.7994384765625Q394.1978759765625 375.39862060546875 436.8983154296875 329.6982116699219Q479.5987548828125 283.997802734375 555.7993774414062 283.997802734375Q632 283.997802734375 674.700439453125 329.6982116699219Q717.40087890625 375.39862060546875 717.40087890625 460.7994384765625V1490H1086.197998046875V454.3995361328125Q1086.197998046875 224.3997802734375 948.3982238769531 100.59991455078125Q810.5984497070312 -23.199951171875 561.3992919921875 -23.199951171875Z"/><path transform="translate(1085.84 0)" d="M691.19921875 -24Q491.9996337890625 -24 352.39984130859375 36.300018310546875Q212.800048828125 96.60003662109375 139.80010986328125 212.39999389648438Q66.8001708984375 328.199951171875 66.8001708984375 492.7998046875H417.99761962890625Q420.3975830078125 423.5992431640625 454.49774169921875 373.8988342285156Q488.597900390625 324.19842529296875 549.9982604980469 297.6982116699219Q611.3986206054688 271.197998046875 695.1991577148438 271.197998046875Q769.7996826171875 271.197998046875 825.1000671386719 290.7981872558594Q880.4004516601562 310.39837646484375 911.4006652832031 345.7987365722656Q942.40087890625 381.1990966796875 942.40087890625 428.39959716796875Q942.40087890625 469.59991455078125 915.8008422851562 500.400146484375Q889.2008056640625 531.2003784179688 833.1006774902344 554.1005554199219Q777.0005493164062 577.000732421875 688.2002563476562 595.0008544921875L536.4000244140625 625.6010131835938Q317.9998779296875 669.6011962890625 206.60003662109375 777.2009887695312Q95.2001953125 884.80078125 95.2001953125 1048.0006103515625Q95.2001953125 1187.4004516601562 169.50003051757812 1292.1003112792969Q243.79986572265625 1396.8001708984375 376.599609375 1455.4000854492188Q509.39935302734375 1514 685.1990356445312 1514Q864.9986572265625 1514 995.0984191894531 1455.5000305175781Q1125.1981811523438 1397.0000610351562 1197.1980590820312 1287.400146484375Q1269.1979370117188 1177.8002319335938 1273.9979248046875 1024.400390625H932.8004150390625Q925.6004028320312 1114.8011474609375 860.3999938964844 1166.7015686035156Q795.1995849609375 1218.6019897460938 690.3988647460938 1218.6019897460938Q624.7984008789062 1218.6019897460938 573.8980407714844 1199.0018005371094Q522.9976806640625 1179.401611328125 494.09747314453125 1145.2012634277344Q465.197265625 1111.0009155273438 465.197265625 1065.8004760742188Q465.197265625 1025.4002075195312 489.59735107421875 996.7999877929688Q513.9974365234375 968.1997680664062 566.6976318359375 946.7995910644531Q619.3978271484375 925.3994140625 702.5982055664062 908.7992553710938L832.3988037109375 882.7990112304688Q956.5985717773438 858.198974609375 1046.5984191894531 820.9989624023438Q1136.5982666015625 783.7989501953125 1194.2981872558594 731.3989868164062Q1251.9981079101562 678.9990234375 1279.5980834960938 610.2991027832031Q1307.1980590820312 541.5991821289062 1307.1980590820312 454.79931640625Q1307.1980590820312 304.19964599609375 1234.09814453125 196.99978637695312Q1160.9982299804688 89.7999267578125 1023.0984802246094 32.89996337890625Q885.19873046875 -24 691.19921875 -24Z"/></g></g><g fill="currentColor" transform="translate(376 176) scale(0.09375 -0.09375) translate(-57.00 -745.00)"><path transform="translate(0.00 0)" d="M549.798583984375 -22.39990234375Q319.800048828125 -22.39990234375 188.400390625 100.999755859375Q57.000732421875 224.3994140625 57.000732421875 453.998779296875V556.7978515625H359.395751953125V451.598876953125Q359.395751953125 352.7972412109375 409.296630859375 300.39642333984375Q459.197509765625 247.99560546875 545.5987548828125 247.99560546875Q632 247.99560546875 681.90087890625 300.39642333984375Q731.8017578125 352.7972412109375 731.8017578125 451.598876953125V1490H1053.39599609375V446.799072265625Q1053.39599609375 220.799560546875 919.2964477539062 99.1998291015625Q785.1968994140625 -22.39990234375 549.798583984375 -22.39990234375Z"/><path transform="translate(1116.04 0)" d="M765.2000732421875 -24Q564.6002197265625 -24 404.70050048828125 69.000244140625Q244.80078125 162.00048828125 152.4010009765625 334.300537109375Q60.001220703125 506.6005859375 60.001220703125 744Q60.001220703125 983.3994140625 152.4010009765625 1155.9994506835938Q244.80078125 1328.5994873046875 404.70050048828125 1421.2997436523438Q564.6002197265625 1514 765.2000732421875 1514Q966.199951171875 1514 1125.5996704101562 1421.2997436523438Q1284.9993896484375 1328.5994873046875 1377.6991577148438 1155.9994506835938Q1470.39892578125 983.3994140625 1470.39892578125 744Q1470.39892578125 506.0006103515625 1377.6991577148438 333.7005615234375Q1284.9993896484375 161.4005126953125 1125.5996704101562 68.70025634765625Q966.199951171875 -24 765.2000732421875 -24ZM765.2000732421875 259.1953125Q878.0009765625 259.1953125 964.0020751953125 316.0958251953125Q1050.003173828125 372.996337890625 1098.2039794921875 481.49737548828125Q1146.40478515625 589.9984130859375 1146.40478515625 744Q1146.40478515625 899.0015869140625 1098.2039794921875 1008.0026245117188Q1050.003173828125 1117.003662109375 964.0020751953125 1173.9041748046875Q878.0009765625 1230.8046875 765.2000732421875 1230.8046875Q652.9991455078125 1230.8046875 566.998046875 1173.9041748046875Q480.9969482421875 1117.003662109375 432.49615478515625 1008.0026245117188Q383.995361328125 899.0015869140625 383.995361328125 744Q383.995361328125 589.9984130859375 432.49615478515625 481.49737548828125Q480.9969482421875 372.996337890625 566.998046875 316.0958251953125Q652.9991455078125 259.1953125 765.2000732421875 259.1953125Z"/><path transform="translate(2605.08 0)" d="M107.20166015625 0V1490H1187.1971435546875V1214.8046875H428.7958984375V885.5982666015625H1129.797119140625V617.6026611328125H428.7958984375V275.1953125H1187.1971435546875V0Z"/><path transform="translate(4204.16 0)" d="M678.3984375 -24Q485.999267578125 -24 349.7996826171875 36.60003662109375Q213.60009765625 97.2000732421875 141.6002197265625 212.29998779296875Q69.600341796875 327.39990234375 69.600341796875 489.599609375H378.9952392578125Q380.795166015625 411.198486328125 417.4954833984375 354.79766845703125Q454.19580078125 298.3968505859375 521.4965209960938 268.39642333984375Q588.7972412109375 238.39599609375 681.3983154296875 238.39599609375Q764.599365234375 238.39599609375 826.2001342773438 261.09637451171875Q887.8009033203125 283.7967529296875 922.3013305664062 325.09747314453125Q956.8017578125 366.398193359375 956.8017578125 421.7991943359375Q956.8017578125 468.1998291015625 929.6016845703125 502.80029296875Q902.401611328125 537.4007568359375 844.2013549804688 563.2011108398438Q786.0010986328125 589.00146484375 692.4005126953125 609.001708984375L536.800048828125 642.2020263671875Q315.999755859375 689.202392578125 207.2000732421875 793.4019775390625Q98.400390625 897.6015625 98.400390625 1058.001220703125Q98.400390625 1194.8009033203125 170.00006103515625 1297.2006225585938Q241.5997314453125 1399.600341796875 370.19921875 1456.8001708984375Q498.7987060546875 1514 669.3980712890625 1514Q842.997314453125 1514 969.1968383789062 1456.0000610351562Q1095.3963623046875 1398.0001220703125 1165.3961181640625 1289.80029296875Q1235.3958740234375 1181.6004638671875 1239.995849609375 1030.80078125H939.600830078125Q932.2008056640625 1133.602294921875 860.2999877929688 1192.4031372070312Q788.399169921875 1251.2039794921875 671.7977294921875 1251.2039794921875Q598.5968017578125 1251.2039794921875 541.7960815429688 1228.5036010742188Q484.995361328125 1205.80322265625 452.6949462890625 1165.9025268554688Q420.39453125 1126.0018310546875 420.39453125 1073.6009521484375Q420.39453125 1028.8004150390625 446.1947021484375 996.5999755859375Q471.994873046875 964.3995361328125 527.895263671875 940.0991821289062Q583.795654296875 915.798828125 673.1964111328125 896.5985107421875L812.797607421875 866.5980224609375Q933.1971435546875 841.39794921875 1020.6968383789062 803.9979248046875Q1108.196533203125 766.597900390625 1164.5963745117188 714.7979736328125Q1220.9962158203125 662.998046875 1248.1961669921875 595.5982055664062Q1275.3961181640625 528.1983642578125 1275.3961181640625 443.5986328125Q1275.3961181640625 298.3992919921875 1203.6962890625 193.49957275390625Q1131.9964599609375 88.599853515625 998.1969604492188 32.2999267578125Q864.3974609375 -24 678.3984375 -24Z"/><path transform="translate(5508.20 0)" d="M107.20166015625 0V1490H1187.1971435546875V1214.8046875H428.7958984375V885.5982666015625H1129.797119140625V617.6026611328125H428.7958984375V275.1953125H1187.1971435546875V0Z"/><path transform="translate(6718.24 0)" d="M528.001708984375 0 8.00048828125 1490H358.7939453125L591.3975830078125 783.9921875Q635.3968505859375 641.9949951171875 682.7965698242188 479.8966064453125Q730.1962890625 317.7982177734375 784.5965576171875 130.5982666015625H691.3983154296875Q743.798583984375 317.7982177734375 789.598388671875 479.8966064453125Q835.398193359375 641.9949951171875 877.7974853515625 783.9921875L1102.401123046875 1490H1448.794677734375L940.793212890625 0Z"/><path transform="translate(8134.28 0)" d="M107.20166015625 0V1490H1187.1971435546875V1214.8046875H428.7958984375V885.5982666015625H1129.797119140625V617.6026611328125H428.7958984375V275.1953125H1187.1971435546875V0Z"/><path transform="translate(9344.32 0)" d="M107.20166015625 0V1490H708.19970703125Q877.399169921875 1490 1000.7987670898438 1429.9002075195312Q1124.1983642578125 1369.8004150390625 1191.09814453125 1259.30078125Q1257.9979248046875 1148.8011474609375 1257.9979248046875 997.20166015625Q1257.9979248046875 848.60205078125 1187.6981201171875 740.0023193359375Q1117.3983154296875 631.402587890625 989.8987426757812 572.5027465820312Q862.399169921875 513.6029052734375 689.39990234375 513.6029052734375H300.7978515625V770.7989501953125H688.0003662109375Q767.0013427734375 770.7989501953125 824.10205078125 798.7992553710938Q881.2027587890625 826.799560546875 912.203125 877.8001708984375Q943.2034912109375 928.80078125 943.2034912109375 997.20166015625Q943.2034912109375 1066.6025390625 912.0031127929688 1116.9031372070312Q880.802734375 1167.2037353515625 823.7020263671875 1195.2040405273438Q766.601318359375 1223.204345703125 687.2003173828125 1223.204345703125H428.7958984375V0ZM949.002685546875 0 610.601806640625 673.599853515625H947.1964111328125L1292.7972412109375 0Z"/><path transform="translate(10639.36 0)" d="M428.7958984375 1490V0H107.20166015625V1490Z"/><path transform="translate(11134.40 0)" d="M107.20166015625 0V1490H444.3963623046875L907.802490234375 750.9906005859375Q930.202392578125 715.790771484375 964.30224609375 656.0911254882812Q998.402099609375 596.3914794921875 1036.7019653320312 527.5918579101562Q1075.0018310546875 458.792236328125 1108.8017578125 395.992431640625L1072.0025634765625 311.994384765625Q1068.20263671875 381.793701171875 1065.4026489257812 472.29290771484375Q1062.6026611328125 562.7921142578125 1061.3026733398438 646.2913208007812Q1060.002685546875 729.79052734375 1060.002685546875 777.58984375V1490H1381.596923828125V0H1043.6021728515625L621.797119140625 671.207763671875Q594.997314453125 714.607421875 553.2974853515625 784.9070434570312Q511.59765625 855.2066650390625 461.29766845703125 944.806396484375Q410.9976806640625 1034.4061279296875 356.7974853515625 1132.80615234375L414.39599609375 1166.40673828125Q421.1959228515625 1057.0064697265625 424.2958984375 959.8067016601562Q427.3958740234375 862.60693359375 428.09588623046875 788.4072875976562Q428.7958984375 714.2076416015625 428.7958984375 672.0078125V0Z"/><path transform="translate(12582.44 0)" d="M765.2000732421875 -24Q564.6002197265625 -24 404.70050048828125 69.000244140625Q244.80078125 162.00048828125 152.4010009765625 334.300537109375Q60.001220703125 506.6005859375 60.001220703125 744Q60.001220703125 983.3994140625 152.4010009765625 1155.9994506835938Q244.80078125 1328.5994873046875 404.70050048828125 1421.2997436523438Q564.6002197265625 1514 765.2000732421875 1514Q966.199951171875 1514 1125.5996704101562 1421.2997436523438Q1284.9993896484375 1328.5994873046875 1377.6991577148438 1155.9994506835938Q1470.39892578125 983.3994140625 1470.39892578125 744Q1470.39892578125 506.0006103515625 1377.6991577148438 333.7005615234375Q1284.9993896484375 161.4005126953125 1125.5996704101562 68.70025634765625Q966.199951171875 -24 765.2000732421875 -24ZM765.2000732421875 259.1953125Q878.0009765625 259.1953125 964.0020751953125 316.0958251953125Q1050.003173828125 372.996337890625 1098.2039794921875 481.49737548828125Q1146.40478515625 589.9984130859375 1146.40478515625 744Q1146.40478515625 899.0015869140625 1098.2039794921875 1008.0026245117188Q1050.003173828125 1117.003662109375 964.0020751953125 1173.9041748046875Q878.0009765625 1230.8046875 765.2000732421875 1230.8046875Q652.9991455078125 1230.8046875 566.998046875 1173.9041748046875Q480.9969482421875 1117.003662109375 432.49615478515625 1008.0026245117188Q383.995361328125 899.0015869140625 383.995361328125 744Q383.995361328125 589.9984130859375 432.49615478515625 481.49737548828125Q480.9969482421875 372.996337890625 566.998046875 316.0958251953125Q652.9991455078125 259.1953125 765.2000732421875 259.1953125Z"/></g></svg>